<?xml version="1.0" encoding="UTF-8"?>
<svg version="1.1" xmlns="http://www.w3.org/2000/svg" width="424" height="421">
<path d="M0 0 C1.09373428 -0.00101212 1.09373428 -0.00101212 2.20956421 -0.00204468 C14.41391259 0.01582113 26.21770402 0.75945879 38.1875 3.25 C39.41218994 3.49943359 39.41218994 3.49943359 40.66162109 3.75390625 C91.84694114 14.52346511 134.94812435 45.71763938 163.44189453 89.16259766 C190.64318744 131.62807839 199.20650273 184.04692122 188.85180664 233.23535156 C179.06435767 276.85438258 154.76195733 316.88841121 119.1875 344.25 C118.6109668 344.69714355 118.03443359 345.14428711 117.44042969 345.60498047 C77.18760454 376.47819786 26.3775258 389.13580051 -23.79711914 383.42553711 C-66.23068853 377.72607747 -103.98862917 358.63919137 -134.8125 329.25 C-135.59238281 328.52296875 -136.37226563 327.7959375 -137.17578125 327.046875 C-172.11477062 293.53523333 -191.093868 243.78882371 -192.16381836 195.96166992 C-192.55174225 144.37579049 -173.78932101 95.9621584 -138.17724609 58.68212891 C-136.86301533 57.30300947 -135.56589339 55.90764787 -134.26953125 54.51171875 C-100.01309145 18.70052373 -48.88762805 0.04084411 0 0 Z M-10.8125 151.25 C-11.16223877 151.89469238 -11.51197754 152.53938477 -11.87231445 153.20361328 C-15.86222506 160.54055387 -19.91712681 167.83944614 -24 175.125 C-24.61552734 176.22585937 -25.23105469 177.32671875 -25.86523438 178.4609375 C-26.46013672 179.523125 -27.05503906 180.5853125 -27.66796875 181.6796875 C-28.46690552 183.10643799 -28.46690552 183.10643799 -29.28198242 184.56201172 C-30.32112568 186.38701847 -31.39853439 188.1906573 -32.5090332 189.97314453 C-33.97811009 192.10202164 -33.97811009 192.10202164 -33.8125 194.25 C-11.0425 194.25 11.7275 194.25 35.1875 194.25 C33.74774851 190.65062128 32.3520347 187.58964987 30.46484375 184.2578125 C29.93012451 183.31172119 29.39540527 182.36562988 28.84448242 181.39086914 C28.27705322 180.39563232 27.70962402 179.40039551 27.125 178.375 C26.54661377 177.35591553 25.96822754 176.33683105 25.37231445 175.28686523 C20.76636061 167.19949662 16.04202247 159.19034295 11.1875 151.25 C7.8788579 155.42880485 5.4148477 160.03276011 2.80859375 164.66796875 C1.1875 167.25 1.1875 167.25 -0.8125 168.25 C-1.01875 167.486875 -1.225 166.72375 -1.4375 165.9375 C-3.37144391 160.75101406 -6.0910146 156.05966916 -8.8125 151.25 C-9.4725 151.25 -10.1325 151.25 -10.8125 151.25 Z M-100.1875 207.75 C-103.015177 212.1002723 -103.31522831 216.1854778 -102.8125 221.25 C-101.57363136 225.37956213 -100.39875131 227.67840497 -97.3125 230.6875 C-92.50500967 232.83370104 -88.01039411 232.9517565 -82.8125 232.25 C-81.8225 231.59 -80.8325 230.93 -79.8125 230.25 C-79.56219023 227.66619823 -79.56219023 227.66619823 -79.8125 225.25 C-80.8025 225.58 -81.7925 225.91 -82.8125 226.25 C-85.1875 226.48828125 -85.1875 226.48828125 -87.8125 226.5625 C-89.111875 226.61857422 -89.111875 226.61857422 -90.4375 226.67578125 C-92.8125 226.25 -92.8125 226.25 -94.5703125 224.40625 C-96.21391119 221.55321077 -96.68297433 219.55290455 -96.8125 216.25 C-96.07474177 213.65988478 -95.0898297 211.66273387 -93.8125 209.25 C-91.45979407 208.07364703 -89.991748 208.11640641 -87.375 208.125 C-86.20130859 208.12113281 -86.20130859 208.12113281 -85.00390625 208.1171875 C-82.8125 208.25 -82.8125 208.25 -79.8125 209.25 C-79.8125 207.27 -79.8125 205.29 -79.8125 203.25 C-87.32132461 200.84717612 -94.66308475 201.93482605 -100.1875 207.75 Z M-72.6875 208.3125 C-75.42624789 213.02923247 -75.40688953 217.9500267 -74.8125 223.25 C-72.64855984 227.65802625 -70.43053133 230.48139226 -65.8125 232.25 C-60.46761896 232.91198068 -56.20901661 232.92332051 -51.3125 230.5625 C-47.06680034 226.63522782 -45.28164139 223.23022486 -44.75 217.37109375 C-44.90125104 212.23801147 -46.65081163 208.41168837 -50.25 204.8125 C-58.10583352 200.02235761 -66.53552174 201.54532392 -72.6875 208.3125 Z M54.1875 202.25 C54.1875 212.15 54.1875 222.05 54.1875 232.25 C55.8375 232.25 57.4875 232.25 59.1875 232.25 C59.1875 228.29 59.1875 224.33 59.1875 220.25 C60.8375 220.25 62.4875 220.25 64.1875 220.25 C64.38085938 220.86488281 64.57421875 221.47976562 64.7734375 222.11328125 C65.03382813 222.92152344 65.29421875 223.72976562 65.5625 224.5625 C65.81773437 225.36300781 66.07296875 226.16351563 66.3359375 226.98828125 C67.17581811 229.47724528 67.17581811 229.47724528 69.1875 232.25 C71.77130177 232.50030977 71.77130177 232.50030977 74.1875 232.25 C73.98253906 231.65832031 73.77757812 231.06664062 73.56640625 230.45703125 C70.35076531 221.0255102 70.35076531 221.0255102 70.1875 218.25 C70.661875 217.816875 71.13625 217.38375 71.625 216.9375 C73.59377698 215.14646127 73.59377698 215.14646127 73.625 211.3125 C73.50698831 208.25543523 73.28688473 207.38842873 71.4375 204.8125 C65.9867453 201.02725368 61.02705144 202.25 54.1875 202.25 Z M80.8125 207.6875 C77.97260812 212.16579103 77.74620261 215.95443132 78.1875 221.25 C79.52807556 225.21344079 81.23997391 228.33118682 84.25 231.25 C88.80221472 232.79969012 93.42718482 232.81740599 98.1875 232.25 C99.1775 231.59 100.1675 230.93 101.1875 230.25 C101.43780977 227.66619823 101.43780977 227.66619823 101.1875 225.25 C100.5275 225.58 99.8675 225.91 99.1875 226.25 C94.69375682 226.72755807 90.62147346 227.00112895 86.5625 224.875 C84.39483815 220.73673647 84.46737739 216.81330327 85.1875 212.25 C86.625 209.625 86.625 209.625 89.1875 208.25 C93.43807877 207.73594083 97.12105215 207.89451738 101.1875 209.25 C101.1875 207.27 101.1875 205.29 101.1875 203.25 C93.707345 200.756615 86.41300962 201.93960855 80.8125 207.6875 Z M-122.8125 203.25 C-122.8125 212.82 -122.8125 222.39 -122.8125 232.25 C-117.5325 232.25 -112.2525 232.25 -106.8125 232.25 C-106.8125 230.6 -106.8125 228.95 -106.8125 227.25 C-110.4425 227.25 -114.0725 227.25 -117.8125 227.25 C-117.8125 224.28 -117.8125 221.31 -117.8125 218.25 C-115.1725 218.25 -112.5325 218.25 -109.8125 218.25 C-109.8125 216.93 -109.8125 215.61 -109.8125 214.25 C-112.4525 214.25 -115.0925 214.25 -117.8125 214.25 C-117.8125 211.94 -117.8125 209.63 -117.8125 207.25 C-114.5125 207.25 -111.2125 207.25 -107.8125 207.25 C-107.8125 205.93 -107.8125 204.61 -107.8125 203.25 C-112.7625 203.25 -117.7125 203.25 -122.8125 203.25 Z M-38.8125 203.25 C-38.8125 212.82 -38.8125 222.39 -38.8125 232.25 C-36.8325 232.25 -34.8525 232.25 -32.8125 232.25 C-32.4825 226.64 -32.1525 221.03 -31.8125 215.25 C-29.8325 218.22 -27.8525 221.19 -25.8125 224.25 C-23.11528014 220.99473466 -21.0110391 217.91423183 -18.8125 214.25 C-18.4825 220.19 -18.1525 226.13 -17.8125 232.25 C-16.1625 232.25 -14.5125 232.25 -12.8125 232.25 C-12.8125 222.68 -12.8125 213.11 -12.8125 203.25 C-14.7925 203.25 -16.7725 203.25 -18.8125 203.25 C-20.76307635 205.41650524 -20.76307635 205.41650524 -22.0625 208.25 C-22.93561063 209.93989153 -23.842475 211.61381326 -24.8125 213.25 C-25.4725 213.25 -26.1325 213.25 -26.8125 213.25 C-28.32355915 210.70122552 -29.64770028 208.08147197 -30.984375 205.4375 C-31.58765625 204.715625 -32.1909375 203.99375 -32.8125 203.25 C-34.7925 203.25 -36.7725 203.25 -38.8125 203.25 Z M-3.8125 203.25 C-3.8125 212.82 -3.8125 222.39 -3.8125 232.25 C-2.1625 232.25 -0.5125 232.25 1.1875 232.25 C1.1875 226.31 1.1875 220.37 1.1875 214.25 C3.42031732 216.48281732 5.09893831 218.39341164 6.875 220.9375 C7.31199219 221.56011719 7.74898437 222.18273437 8.19921875 222.82421875 C8.52535156 223.29472656 8.85148438 223.76523438 9.1875 224.25 C13.43004632 219.24536182 13.43004632 219.24536182 15.1875 213.25 C15.8475 213.25 16.5075 213.25 17.1875 213.25 C17.1875 219.52 17.1875 225.79 17.1875 232.25 C18.8375 232.25 20.4875 232.25 22.1875 232.25 C22.1875 222.68 22.1875 213.11 22.1875 203.25 C20.2075 203.25 18.2275 203.25 16.1875 203.25 C14.16470672 205.33753115 14.16470672 205.33753115 12.8125 208.125 C12.30976563 209.02992188 11.80703125 209.93484375 11.2890625 210.8671875 C10.04762524 213.11504659 10.04762524 213.11504659 10.1875 215.25 C9.5275 215.25 8.8675 215.25 8.1875 215.25 C7.94 214.569375 7.6925 213.88875 7.4375 213.1875 C5.94552092 209.68134917 4.11914489 206.53379632 2.1875 203.25 C0.2075 203.25 -1.7725 203.25 -3.8125 203.25 Z M31.1875 203.25 C31.1875 212.82 31.1875 222.39 31.1875 232.25 C36.4675 232.25 41.7475 232.25 47.1875 232.25 C47.1875 230.6 47.1875 228.95 47.1875 227.25 C43.5575 227.25 39.9275 227.25 36.1875 227.25 C36.1875 224.28 36.1875 221.31 36.1875 218.25 C38.8275 218.25 41.4675 218.25 44.1875 218.25 C44.1875 216.93 44.1875 215.61 44.1875 214.25 C41.5475 214.25 38.9075 214.25 36.1875 214.25 C36.1875 211.94 36.1875 209.63 36.1875 207.25 C39.4875 207.25 42.7875 207.25 46.1875 207.25 C46.1875 205.93 46.1875 204.61 46.1875 203.25 C41.2375 203.25 36.2875 203.25 31.1875 203.25 Z M108.1875 203.25 C108.1875 212.82 108.1875 222.39 108.1875 232.25 C113.4675 232.25 118.7475 232.25 124.1875 232.25 C124.1875 230.6 124.1875 228.95 124.1875 227.25 C120.5575 227.25 116.9275 227.25 113.1875 227.25 C113.1875 224.28 113.1875 221.31 113.1875 218.25 C115.8275 218.25 118.4675 218.25 121.1875 218.25 C121.1875 216.93 121.1875 215.61 121.1875 214.25 C118.5475 214.25 115.9075 214.25 113.1875 214.25 C113.1875 211.94 113.1875 209.63 113.1875 207.25 C116.4875 207.25 119.7875 207.25 123.1875 207.25 C123.1875 205.93 123.1875 204.61 123.1875 203.25 C118.2375 203.25 113.2875 203.25 108.1875 203.25 Z " fill="#2A2A2A" transform="translate(211.8125,17.75)"/>
<path d="M0 0 C0.8647998 0.61029053 0.8647998 0.61029053 1.74707031 1.23291016 C27.15851366 19.41690433 47.56256697 43.38370776 62 71 C62.61359375 72.14726563 63.2271875 73.29453125 63.859375 74.4765625 C88.29400509 121.50781953 90.67096908 176.80722124 75 227 C68.14337908 247.48605962 57.89346393 266.69939021 45 284 C44.32453125 284.9075 43.6490625 285.815 42.953125 286.75 C26.7203269 307.67823556 6.939659 324.80508707 -16 338 C-16.60440918 338.35271973 -17.20881836 338.70543945 -17.83154297 339.06884766 C-56.44566408 361.39432905 -104.05530274 369.3582772 -148 362 C-148.72703125 361.88172852 -149.4540625 361.76345703 -150.203125 361.64160156 C-189.44841543 354.99358469 -225.25883779 336.29092008 -254 309 C-254.49854492 308.52868652 -254.99708984 308.05737305 -255.51074219 307.57177734 C-281.87151414 282.48497583 -299.03862518 251.08799701 -309.3125 216.375 C-309.65800903 215.23369629 -309.65800903 215.23369629 -310.01049805 214.06933594 C-314.63400439 197.67921805 -315.54574245 181.18855118 -315.4375 164.25 C-315.43293793 162.73262741 -315.43293793 162.73262741 -315.42828369 161.18460083 C-315.3625942 146.41045031 -314.79339751 132.35082117 -311 118 C-310.78569336 117.12811035 -310.57138672 116.2562207 -310.35058594 115.35791016 C-297.4946916 63.36358349 -263.73385182 18.99972751 -218.13037109 -8.74951172 C-212.88156621 -11.83046274 -207.46042185 -14.52590809 -201.94433594 -17.09130859 C-200.05832624 -17.97274105 -198.18982122 -18.88499147 -196.3203125 -19.80078125 C-179.08788089 -28.01337692 -159.90522522 -32.69700801 -141 -35 C-140.27248535 -35.0928125 -139.5449707 -35.185625 -138.79541016 -35.28125 C-90.07061694 -40.88525168 -40.01298104 -28.32087619 0 0 Z M-159 -28 C-160.34070557 -27.67854004 -160.34070557 -27.67854004 -161.70849609 -27.35058594 C-211.96531051 -14.90638644 -256.50753933 16.6041167 -283.50390625 61.0390625 C-285.80208843 64.9585985 -287.93267127 68.95465415 -290 73 C-290.38140137 73.74362793 -290.76280273 74.48725586 -291.15576172 75.25341797 C-314.53039083 121.37613975 -318.73538077 175.0879227 -303.21826172 224.48876953 C-290.30056358 263.31916915 -265.98125515 297.67690745 -233 322 C-231.93910156 322.78246094 -230.87820312 323.56492187 -229.78515625 324.37109375 C-187.51549701 354.51892241 -134.36972962 366.78530648 -83.12426758 358.359375 C-61.58973104 354.53298126 -41.24258136 347.34737809 -22 337 C-21.40912598 336.68981934 -20.81825195 336.37963867 -20.20947266 336.06005859 C-6.99506163 329.09754779 4.92086056 320.17941954 15.83984375 310.0078125 C17.86538639 308.12512006 19.94704391 306.34262939 22.0625 304.5625 C55.72930345 275.07874628 74.28177824 229.40504403 80 186 C80.13277344 185.05511719 80.26554687 184.11023438 80.40234375 183.13671875 C83.17211639 159.34702775 80.6901442 133.95536341 74 111 C73.76829102 110.20207031 73.53658203 109.40414062 73.29785156 108.58203125 C64.73800827 79.80685663 50.36065491 54.25809175 30.01953125 32.20703125 C28.26095093 30.28517848 26.59180225 28.32352511 24.9375 26.3125 C21.62931446 22.44996985 17.91663032 19.23335525 14 16 C13.21641113 15.34789551 13.21641113 15.34789551 12.41699219 14.68261719 C-34.84620638 -24.50412699 -98.39256494 -42.67443701 -159 -28 Z " fill="#232022" transform="translate(328,46)"/>
<path d="M0 0 C3.15912474 2.90993497 5.20900744 5.78749441 7.27734375 9.54296875 C7.87353516 10.61740234 8.46972656 11.69183594 9.08398438 12.79882812 C9.69564453 13.91708984 10.30730469 15.03535156 10.9375 16.1875 C11.54529297 17.28642578 12.15308594 18.38535156 12.77929688 19.51757812 C13.96881867 21.66949619 15.15559174 23.82293641 16.33935547 25.97802734 C18.54573219 29.993101 20.77222469 33.99676809 23 38 C16.4 38 9.8 38 3 38 C-9.13641034 20.66227094 -9.13641034 20.66227094 -8.91357422 14.6796875 C-7.59835806 10.14489861 -4.98164446 6.63218507 -2 3 C-1.34 2.01 -0.68 1.02 0 0 Z " fill="#292727" transform="translate(222,172)"/>
<path d="M0 0 C3.99790871 1.33263624 4.61818041 3.10657163 6.75 6.6875 C7.38421875 7.72261719 8.0184375 8.75773438 8.671875 9.82421875 C10.27989419 13.66927639 10.2713222 15.04912177 9 19 C7.49143002 22.03923956 5.77422011 24.92199974 4 27.8125 C3.30390625 28.97555664 3.30390625 28.97555664 2.59375 30.16210938 C-0.79958791 35.79958791 -0.79958791 35.79958791 -2 37 C-3.41570123 37.08651611 -4.835595 37.10704904 -6.25390625 37.09765625 C-7.10791016 37.09443359 -7.96191406 37.09121094 -8.84179688 37.08789062 C-9.73962891 37.07951172 -10.63746094 37.07113281 -11.5625 37.0625 C-12.46419922 37.05798828 -13.36589844 37.05347656 -14.29492188 37.04882812 C-16.53001314 37.03700225 -18.76497437 37.0205222 -21 37 C-16.90826723 28.5524601 -12.45378223 20.39663589 -7.6875 12.3125 C-7.05521484 11.23033203 -6.42292969 10.14816406 -5.77148438 9.03320312 C-1.1465853 1.1465853 -1.1465853 1.1465853 0 0 Z " fill="#2A292A" transform="translate(201,173)"/>
<path d="M0 0 C23.1 0 46.2 0 70 0 C70 0.33 70 0.66 70 1 C44.755 1.495 44.755 1.495 19 2 C18.67 3.65 18.34 5.3 18 7 C17.34 7 16.68 7 16 7 C15.83177734 8.08861328 15.83177734 8.08861328 15.66015625 9.19921875 C14.97038613 12.12563993 13.94489186 14.22287809 12.4375 16.8125 C11.98246094 17.60269531 11.52742188 18.39289063 11.05859375 19.20703125 C10.70925781 19.79871094 10.35992187 20.39039063 10 21 C7.11899262 18.35258781 5.15846487 16.35826841 3.5625 12.75 C3.046875 11.8425 2.53125 10.935 2 10 C-0.97 9.505 -0.97 9.505 -4 9 C-4 18.57 -4 28.14 -4 38 C-4.33 38 -4.66 38 -5 38 C-5.02465622 33.74585377 -5.04283899 29.49174502 -5.05493164 25.23754883 C-5.05997101 23.78929927 -5.06680253 22.34105483 -5.07543945 20.89282227 C-5.08752247 18.81525412 -5.09323211 16.73775303 -5.09765625 14.66015625 C-5.10289307 13.40855713 -5.10812988 12.15695801 -5.11352539 10.86743164 C-5 8 -5 8 -4 7 C-2.00041636 6.95919217 0.00045254 6.95745644 2 7 C2.66 5.35 3.32 3.7 4 2 C2.68 1.34 1.36 0.68 0 0 Z " fill="#201F20" transform="translate(177,212)"/>
<path d="M0 0 C2.86234819 0.61813356 4.50397479 2.15034963 6.16015625 4.51953125 C7.7701099 8.15491045 7.76170906 11.57165192 7.0078125 15.43359375 C5.4453125 18.43359375 5.4453125 18.43359375 3.0078125 20.43359375 C-1.09772351 21.65004886 -3.26541 21.69413663 -7.3046875 20.24609375 C-10.12366462 18.34492314 -11.09556807 17.66142369 -11.9921875 14.43359375 C-12.44684836 9.43232431 -12.08479765 6.44253283 -8.9921875 2.43359375 C-5.8138595 0.31470841 -3.79928396 -0.11916573 0 0 Z " fill="#282628" transform="translate(153.9921875,224.56640625)"/>
<path d="M0 0 C3.26929024 3.85835155 5.79067034 7.85964113 8.25 12.25 C8.61351562 12.88679687 8.97703125 13.52359375 9.3515625 14.1796875 C12 18.85925752 12 18.85925752 12 20 C4.41 20 -3.18 20 -11 20 C-9.75826576 16.8956644 -8.7118012 14.30709821 -7.08984375 11.484375 C-6.73986328 10.87335938 -6.38988281 10.26234375 -6.02929688 9.6328125 C-5.66900391 9.01148438 -5.30871094 8.39015625 -4.9375 7.75 C-4.57333984 7.11320313 -4.20917969 6.47640625 -3.83398438 5.8203125 C-1.14074248 1.14074248 -1.14074248 1.14074248 0 0 Z " fill="#262326" transform="translate(212,190)"/>
<path d="M0 0 C0.66 0.66 1.32 1.32 2 2 C1.05125 2.70125 0.1025 3.4025 -0.875 4.125 C-5.03688411 7.61941213 -5.7837887 11.05409827 -6.375 16.375 C-5.90673762 20.90153634 -4.62212849 24.28043115 -2 28 C0.56399774 30.01119746 0.56399774 30.01119746 3 31 C2.34 31.33 1.68 31.66 1 32 C-3.09784681 30.05891467 -5.24241711 27.51829542 -8 24 C-8.66 24 -9.32 24 -10 24 C-10.33 24.99 -10.66 25.98 -11 27 C-11.66 27 -12.32 27 -13 27 C-16.05272895 20.65032377 -16.05272895 20.65032377 -15.8125 17.6875 C-15 16 -15 16 -13 14 C-12.34854946 8.66962333 -12.34854946 8.66962333 -14.5 4.125 C-14.995 3.75375 -15.49 3.3825 -16 3 C-16 2.34 -16 1.68 -16 1 C-12.125 2.75 -12.125 2.75 -11 5 C-10.29875 4.505 -9.5975 4.01 -8.875 3.5 C-5.62880281 1.8063319 -3.60659844 1.74837685 0 2 C0 1.34 0 0.68 0 0 Z " fill="#252324" transform="translate(297,219)"/>
<path d="M0 0 C0.99 0.66 1.98 1.32 3 2 C1.22987856 5.90982866 -1.21092169 9.34620821 -3.625 12.875 C-7.9110059 19.18571227 -11.70683915 25.64491483 -15.30859375 32.3671875 C-17 35 -17 35 -20 36 C-21 33 -21 33 -19.76953125 30.0234375 C-19.13124988 28.79985262 -18.47770831 27.58415713 -17.8125 26.375 C-17.46243896 25.72708496 -17.11237793 25.07916992 -16.75170898 24.41162109 C-12.15370908 16.15114082 -6.71966109 6.71966109 0 0 Z " fill="#302D2E" transform="translate(54,87)"/>
<path d="M0 0 C0.125 2.875 0.125 2.875 0 6 C-2 8 -2 8 -5.625 8.125 C-6.73875 8.08375 -7.8525 8.0425 -9 8 C-9 5.03 -9 2.06 -9 -1 C-5.79937313 -2.60031344 -3.27728194 -1.03173691 0 0 Z " fill="#262424" transform="translate(280,226)"/>
<path d="M0 0 C0.33 0 0.66 0 1 0 C1.66 2.97 2.32 5.94 3 9 C1.02 9.99 1.02 9.99 -1 11 C-1 12.65 -1 14.3 -1 16 C-1.33 16 -1.66 16 -2 16 C-2 14.35 -2 12.7 -2 11 C-4.97 11 -7.94 11 -11 11 C-11 9.35 -11 7.7 -11 6 C-7.37 6 -3.74 6 0 6 C0 4.02 0 2.04 0 0 Z " fill="#211E1F" transform="translate(259,220)"/>
<path d="M0 0 C3.5 0.125 3.5 0.125 4.5 1.125 C4.58775605 3.27058827 4.60695219 5.41904421 4.59765625 7.56640625 C4.59443359 8.87158203 4.59121094 10.17675781 4.58789062 11.52148438 C4.57953401 12.9101569 4.57106905 14.29882877 4.5625 15.6875 C4.55748666 17.08007656 4.55292347 18.47265481 4.54882812 19.86523438 C4.53699434 23.2851987 4.5205088 26.70507844 4.5 30.125 C4.17 30.125 3.84 30.125 3.5 30.125 C2.67961409 23.723406 2.37245487 17.51197499 2.4375 11.0625 C2.44201172 10.19689453 2.44652344 9.33128906 2.45117188 8.43945312 C2.46280087 6.33460461 2.48072927 4.22979242 2.5 2.125 C-2.71838609 2.75911138 -2.71838609 2.75911138 -6.5 6.125 C-4.20194986 0.15006964 -4.20194986 0.15006964 0 0 Z " fill="#232022" transform="translate(231.5,218.875)"/>
<path d="M0 0 C2.51238291 5.02476582 3.15589247 8.01730135 3.125 13.5625 C3.12886719 14.26052734 3.13273437 14.95855469 3.13671875 15.67773438 C3.12663994 20.87336006 3.12663994 20.87336006 2 22 C1.76924918 23.34747084 1.58846937 24.70377565 1.4375 26.0625 C1.293125 27.361875 1.14875 28.66125 1 30 C0.67 30 0.34 30 0 30 C0 20.1 0 10.2 0 0 Z " fill="#1A1517" transform="translate(409,195)"/>
<path d="M0 0 C0.598125 0.495 1.19625 0.99 1.8125 1.5 C3.97029994 3.28276418 3.97029994 3.28276418 7 3 C7.66 2.01 8.32 1.02 9 0 C9.30292969 0.68707031 9.60585938 1.37414062 9.91796875 2.08203125 C12.93776084 8.93803936 12.93776084 8.93803936 19 13 C18.01 13.495 18.01 13.495 17 14 C12.90215319 12.05891467 10.75758289 9.51829542 8 6 C7.34 6 6.68 6 6 6 C5.67 6.99 5.34 7.98 5 9 C4.34 9 3.68 9 3 9 C2.01 6.03 1.02 3.06 0 0 Z " fill="#201E1F" transform="translate(281,237)"/>
<path d="M0 0 C0.33 0 0.66 0 1 0 C1.09377123 7.41834582 1.17402193 14.66236293 0 22 C-3.40328636 16.89507047 -3.6355876 11.0219232 -3 5 C-2.16982368 3.06292192 -1.49305958 1.49305958 0 0 Z " fill="#2A2728" transform="translate(411,216)"/>
<path d="M0 0 C1 3 1 3 -0.0546875 6.13671875 C-3.8946328 13.62708415 -3.8946328 13.62708415 -7 16 C-12.51683565 17.62012737 -18.39153108 16.74567144 -24 16 C-24 15.67 -24 15.34 -24 15 C-22.90300781 15.04382813 -21.80601562 15.08765625 -20.67578125 15.1328125 C-16.26682823 15.17305133 -12.31901233 14.9833659 -8 14 C-5.15125063 10.9978171 -3.98384704 7.98602734 -3 4 C-3.66 3.34 -4.32 2.68 -5 2 C-3.35 1.34 -1.7 0.68 0 0 Z M-6 4 C-4 5 -4 5 -4 5 Z " fill="#1A171A" transform="translate(206,194)"/>
<path d="M0 0 C2.30598416 3.65114159 2.26789474 6.8080257 2.25 11.0625 C2.25515625 12.29097656 2.2603125 13.51945313 2.265625 14.78515625 C2 18 2 18 0 21 C-1 20 -1 20 -1.1328125 17.3046875 C-1.11944749 11.43744881 -1.07455659 5.77574167 0 0 Z " fill="#1C181B" transform="translate(15,221)"/>
<path d="M0 0 C0.66 0 1.32 0 2 0 C-2.01818182 10.50909091 -2.01818182 10.50909091 -5 12 C-5.84228734 14.2931383 -6.46932939 16.61494957 -7.12109375 18.96875 C-7.41113281 19.6390625 -7.70117188 20.309375 -8 21 C-8.99 21.33 -9.98 21.66 -11 22 C-9.48968084 16.73877829 -7.09625809 12.32767414 -4.375 7.625 C-3.95476562 6.88894531 -3.53453125 6.15289062 -3.1015625 5.39453125 C-2.07247236 3.5936235 -1.03689244 1.79642682 0 0 Z " fill="#231E1F" transform="translate(198,177)"/>
<path d="M0 0 C3.44041235 3.2563903 6.27294823 6.80066911 9.125 10.5625 C9.56714844 11.13935547 10.00929688 11.71621094 10.46484375 12.31054688 C12.38929433 14.83093759 14.24038401 17.36057601 16 20 C8.9076861 16.94270057 4.0901674 9.32116779 0 3 C0 2.01 0 1.02 0 0 Z " fill="#211F21" transform="translate(54,317)"/>
<path d="M0 0 C2.61371215 2.3932786 4.40088665 4.98397046 6.25 8 C6.79140625 8.86625 7.3328125 9.7325 7.890625 10.625 C9 13 9 13 8 16 C3.95808535 11.50898372 1.56325559 6.41015011 -1 1 C-0.67 0.67 -0.34 0.34 0 0 Z " fill="#272527" transform="translate(38,305)"/>
<path d="M0 0 C0.66 0.66 1.32 1.32 2 2 C0.35 4.97 -1.3 7.94 -3 11 C-3.66 10.34 -4.32 9.68 -5 9 C-4.69347955 6.0574037 -4.32728846 3.65457692 -3 1 C-2.01 0.67 -1.02 0.34 0 0 Z " fill="#262123" transform="translate(35,121)"/>
<path d="M0 0 C2.0625 0.4375 2.0625 0.4375 4 1 C4 3 4 3 2.35546875 4.7265625 C1.64003906 5.35304688 0.92460938 5.97953125 0.1875 6.625 C-0.87404297 7.57246094 -0.87404297 7.57246094 -1.95703125 8.5390625 C-4 10 -4 10 -7 10 C-6.071875 8.88625 -6.071875 8.88625 -5.125 7.75 C-3.38913716 5.50358927 -2.18262905 3.54720103 -1 1 C-0.67 0.67 -0.34 0.34 0 0 Z " fill="#221F20" transform="translate(78,61)"/>
<path d="M0 0 C3.3 0 6.6 0 10 0 C8.02 0.99 8.02 0.99 6 2 C5.67 2.66 5.34 3.32 5 4 C5.99 4.33 6.98 4.66 8 5 C5.36 5 2.72 5 0 5 C0 3.35 0 1.7 0 0 Z " fill="#211E1F" transform="translate(325,226)"/>
<path d="M0 0 C0.80179687 0.00451172 1.60359375 0.00902344 2.4296875 0.01367188 C4.41149006 0.02546832 6.39325433 0.04340395 8.375 0.0625 C4.95405758 2.34312828 3.69312778 2.28175007 -0.3125 2.1875 C-1.80330078 2.16042969 -1.80330078 2.16042969 -3.32421875 2.1328125 C-4.08347656 2.10960937 -4.84273438 2.08640625 -5.625 2.0625 C-6.285 3.3825 -6.945 4.7025 -7.625 6.0625 C-7.625 5.4025 -7.625 4.7425 -7.625 4.0625 C-8.285 4.0625 -8.945 4.0625 -9.625 4.0625 C-9.955 3.0725 -10.285 2.0825 -10.625 1.0625 C-7.31505287 -0.59247356 -3.63377 -0.03834335 0 0 Z " fill="#181718" transform="translate(271.625,218.9375)"/>
<path d="M0 0 C2.81340521 2.81340521 2.669115 5.09555696 3 9 C2.5625 11.9375 2.5625 11.9375 2 14 C-0.63091471 10.05362794 -1.40815007 6.27397897 -0.5625 1.5625 C-0.376875 1.046875 -0.19125 0.53125 0 0 Z " fill="#2B2629" transform="translate(17,164)"/>
<path d="M0 0 C0.66 0 1.32 0 2 0 C2.680625 0.763125 3.36125 1.52625 4.0625 2.3125 C7.74588777 5.68240796 11.25322732 6.72798902 16 8 C14.21484375 9.0703125 14.21484375 9.0703125 12 10 C7.28933951 8.4583293 3.5991381 6.49007331 0 3 C0 2.01 0 1.02 0 0 Z " fill="#1E1C1D" transform="translate(137,243)"/>
<path d="M0 0 C2.3125 0.0625 2.3125 0.0625 5 1 C6.875 4.375 6.875 4.375 8 8 C7.67 8.99 7.34 9.98 7 11 C4 5.25 4 5.25 4 3 C1.66924071 3.95865509 1.66924071 3.95865509 0 7 C0 4.69 0 2.38 0 0 Z " fill="#201E1F" transform="translate(272,239)"/>
<path d="M0 0 C2 2 2 2 2 5 C2.66 5.33 3.32 5.66 4 6 C2.02 6.99 2.02 6.99 0 8 C-1.32 6.35 -2.64 4.7 -4 3 C-2 1 -2 1 0 0 Z " fill="#2C2A2B" transform="translate(285,234)"/>
<path d="M0 0 C0.66 0.33 1.32 0.66 2 1 C2.05422947 2.4370809 2.09289723 3.87475462 2.125 5.3125 C2.14820313 6.11300781 2.17140625 6.91351563 2.1953125 7.73828125 C2 10 2 10 0 13 C-1.57170996 9.85658007 -1.23175783 6.44228549 -1 3 C-0.67 2.01 -0.34 1.02 0 0 Z " fill="#201C1D" transform="translate(407,169)"/>
<path d="M0 0 C1.32 0 2.64 0 4 0 C3.38722388 2.96175123 2.74627478 4.38058783 1 7 C0.01 7 -0.98 7 -2 7 C-1.125 2.25 -1.125 2.25 0 0 Z " fill="#282526" transform="translate(40,107)"/>
<path d="M0 0 C1.65 0.33 3.3 0.66 5 1 C4.34 3.31 3.68 5.62 3 8 C2.67 7.01 2.34 6.02 2 5 C-0.64 5 -3.28 5 -6 5 C-6 4.67 -6 4.34 -6 4 C-4.35 3.67 -2.7 3.34 -1 3 C-0.67 2.01 -0.34 1.02 0 0 Z " fill="#343132" transform="translate(331,227)"/>
<path d="M0 0 C1.485 0.99 1.485 0.99 3 2 C3 2.66 3 3.32 3 4 C4.65 4.33 6.3 4.66 8 5 C7.34 6.32 6.68 7.64 6 9 C1.3125 5.484375 1.3125 5.484375 0 4 C0 2.68 0 1.36 0 0 Z " fill="#2A2729" transform="translate(354,71)"/>
<path d="M0 0 C0.33 0 0.66 0 1 0 C1.125 6.75 1.125 6.75 0 9 C-1.32 9 -2.64 9 -4 9 C-3.35499066 5.51694958 -1.95865224 2.93797836 0 0 Z " fill="#1A1718" transform="translate(387,300)"/>
<path d="M0 0 C1.19109375 -0.00386719 1.19109375 -0.00386719 2.40625 -0.0078125 C4.5 0.125 4.5 0.125 6.5 1.125 C6.17 1.785 5.84 2.445 5.5 3.125 C4.406875 2.939375 3.31375 2.75375 2.1875 2.5625 C-1.43624133 1.8671932 -1.43624133 1.8671932 -4.5 3.125 C-5.16 3.785 -5.82 4.445 -6.5 5.125 C-6.5 3.805 -6.5 2.485 -6.5 1.125 C-4.13386544 -0.05806728 -2.63219264 -0.00854608 0 0 Z " fill="#221E1F" transform="translate(124.5,224.875)"/>
<path d="M0 0 C1.85772162 0.08984301 3.71247985 0.24611861 5.5625 0.4375 C7.08037109 0.59025391 7.08037109 0.59025391 8.62890625 0.74609375 C9.80259766 0.87177734 9.80259766 0.87177734 11 1 C7.55549263 3.29633824 5.06187717 3.54016485 1 4 C0.34 3.01 -0.32 2.02 -1 1 C-0.67 0.67 -0.34 0.34 0 0 Z " fill="#292729" transform="translate(239,12)"/>
<path d="M0 0 C2 2.66666667 4 5.33333333 6 8 C5.01 8.99 4.02 9.98 3 11 C2.30034557 9.73581754 1.61565237 8.46334598 0.9375 7.1875 C0.55464844 6.47980469 0.17179687 5.77210938 -0.22265625 5.04296875 C-1 3 -1 3 0 0 Z " fill="#292529" transform="translate(32,293)"/>
<path d="M0 0 C3.32462531 2.8956414 4.30151606 4.69268237 5 9 C5.66 9.33 6.32 9.66 7 10 C7 10.99 7 11.98 7 13 C6.34 13 5.68 13 5 13 C4.15930585 11.39967863 3.32768495 9.79458829 2.5 8.1875 C1.80390625 6.84751953 1.80390625 6.84751953 1.09375 5.48046875 C0 3 0 3 0 0 Z " fill="#222021" transform="translate(39,291)"/>
<path d="M0 0 C0.99 0.33 1.98 0.66 3 1 C3.1953125 7.0546875 3.1953125 7.0546875 3 9 C2.34 9.66 1.68 10.32 1 11 C0.63890458 9.35567294 0.28629924 7.7094792 -0.0625 6.0625 C-0.25972656 5.14597656 -0.45695312 4.22945313 -0.66015625 3.28515625 C-0.77230469 2.53105469 -0.88445313 1.77695312 -1 1 C-0.67 0.67 -0.34 0.34 0 0 Z " fill="#2A2728" transform="translate(19,256)"/>
<path d="M0 0 C0.99 0.99 1.98 1.98 3 3 C2.67 3.99 2.34 4.98 2 6 C1.77548542 8.22574335 1.59217122 10.45581519 1.4375 12.6875 C1.35371094 13.86699219 1.26992187 15.04648438 1.18359375 16.26171875 C1.12300781 17.16535156 1.06242188 18.06898438 1 19 C0.67 19 0.34 19 0 19 C0 12.73 0 6.46 0 0 Z " fill="#0F0D0E" transform="translate(179,231)"/>
<path d="M0 0 C2.64 0 5.28 0 8 0 C8 0.99 8 1.98 8 3 C5.03 3 2.06 3 -1 3 C-0.67 2.01 -0.34 1.02 0 0 Z " fill="#2D2A2B" transform="translate(250,227)"/>
<path d="M0 0 C0.33 0 0.66 0 1 0 C1.05391993 1.79133978 1.09275571 3.58313899 1.125 5.375 C1.14820313 6.37273437 1.17140625 7.37046875 1.1953125 8.3984375 C1 11 1 11 -1 13 C-1.22151549 11.20991533 -1.42682213 9.41781838 -1.625 7.625 C-1.74101562 6.62726563 -1.85703125 5.62953125 -1.9765625 4.6015625 C-1.98429688 3.74304688 -1.99203125 2.88453125 -2 2 C-1.34 1.34 -0.68 0.68 0 0 Z " fill="#171416" transform="translate(16,184)"/>
<path d="M0 0 C3 1 3 1 4.75 3.3125 C6 6 6 6 5.6875 8.3125 C5.460625 8.869375 5.23375 9.42625 5 10 C4.62875 9.1028125 4.62875 9.1028125 4.25 8.1875 C2.83629988 5.71352479 1.34944617 4.56629745 -1 3 C-0.67 2.01 -0.34 1.02 0 0 Z " fill="#251F22" transform="translate(201,173)"/>
<path d="M0 0 C4.12751449 0.60698743 7.3321148 2.03810791 11 4 C7.67465243 5.10844919 5.37817425 4.84454356 2 4 C2 3.34 2 2.68 2 2 C1.34 1.34 0.68 0.68 0 0 Z " fill="#181415" transform="translate(132,390)"/>
<path d="M0 0 C1.32 0.33 2.64 0.66 4 1 C2.68 3.64 1.36 6.28 0 9 C-0.66 8.67 -1.32 8.34 -2 8 C-1.34 5.36 -0.68 2.72 0 0 Z " fill="#262225" transform="translate(382,308)"/>
<path d="M0 0 C0.66 0 1.32 0 2 0 C1.34 3.3 0.68 6.6 0 10 C-0.99 8.68 -1.98 7.36 -3 6 C-2.33228817 3.60736593 -1.77902615 1.77902615 0 0 Z " fill="#292528" transform="translate(403,263)"/>
<path d="M0 0 C2.09350689 3.4019487 2.17942163 6.05272412 2 10 C1.01 10.495 1.01 10.495 0 11 C-1.49297212 8.01405576 -1.11755228 5.29146376 -1 2 C-0.67 1.34 -0.34 0.68 0 0 Z " fill="#1E1A1B" transform="translate(406,244)"/>
<path d="M0 0 C1.5 1.3125 1.5 1.3125 3 3 C3 3.99 3 4.98 3 6 C2.38125 6.144375 1.7625 6.28875 1.125 6.4375 C-1.03258322 6.93152225 -1.03258322 6.93152225 -3 8 C-2.45276317 4.62537285 -1.9451 2.91765 0 0 Z " fill="#252123" transform="translate(222,172)"/>
<path d="M0 0 C0.99 0.33 1.98 0.66 3 1 C2.49396008 3.16874252 2.00016187 4.99967627 1 7 C0.01 6.67 -0.98 6.34 -2 6 C-1.125 1.125 -1.125 1.125 0 0 Z " fill="#2C2828" transform="translate(48,95)"/>
<path d="M0 0 C2.875 0.25 2.875 0.25 6 1 C7.375 3.0625 7.375 3.0625 8 5 C7.01 5.495 7.01 5.495 6 6 C3.5249829 4.88568235 1.32116581 3.41849022 -1 2 C-0.67 1.34 -0.34 0.68 0 0 Z " fill="#2A282B" transform="translate(105,377)"/>
<path d="M0 0 C2.95514876 2.75134539 5.1524809 5.39733775 7 9 C7 9.99 7 10.98 7 12 C6.01 11.67 5.02 11.34 4 11 C2.9375 8.8125 2.9375 8.8125 2 6 C1.62875 4.906875 1.2575 3.81375 0.875 2.6875 C0.58625 1.800625 0.2975 0.91375 0 0 Z " fill="#1F1B1C" transform="translate(230,186)"/>
<path d="M0 0 C1.98567708 0.5859375 3.97135417 1.171875 5.95703125 1.7578125 C5.95703125 2.0878125 5.95703125 2.4178125 5.95703125 2.7578125 C4.50067754 2.97956183 3.04180169 3.18479948 1.58203125 3.3828125 C0.76992187 3.49882812 -0.0421875 3.61484375 -0.87890625 3.734375 C-1.59304687 3.74210937 -2.3071875 3.74984375 -3.04296875 3.7578125 C-3.70296875 3.0978125 -4.36296875 2.4378125 -5.04296875 1.7578125 C-2.04296875 -0.2421875 -2.04296875 -0.2421875 0 0 Z " fill="#292428" transform="translate(254.04296875,402.2421875)"/>
<path d="M0 0 C0.66 0 1.32 0 2 0 C3.12377697 3.30435084 2.89554742 5.0506862 1.5625 8.25 C1.27503906 8.95640625 0.98757812 9.6628125 0.69140625 10.390625 C0.46324219 10.92171875 0.23507813 11.4528125 0 12 C-0.33 12 -0.66 12 -1 12 C-1.08159574 7.83861737 -0.98248524 4.0527516 0 0 Z " fill="#201E1F" transform="translate(25,164)"/>
<path d="M0 0 C0.66 0.33 1.32 0.66 2 1 C1.01 3.97 0.02 6.94 -1 10 C-1.66 9.01 -2.32 8.02 -3 7 C-2.1654738 4.49642139 -1.20628008 2.33214148 0 0 Z " fill="#1A161A" transform="translate(21,159)"/>
<path d="M0 0 C0.99 0.33 1.98 0.66 3 1 C2.67 2.32 2.34 3.64 2 5 C-0.31 5 -2.62 5 -5 5 C-3.35 3.35 -1.7 1.7 0 0 Z " fill="#353033" transform="translate(99,44)"/>
<path d="M0 0 C0.94875 0.04125 1.8975 0.0825 2.875 0.125 C3.205 1.115 3.535 2.105 3.875 3.125 C1.08676345 4.1576802 0.0072726 4.17009293 -2.875 3.1875 C-3.6175 2.836875 -4.36 2.48625 -5.125 2.125 C-3.125 0.125 -3.125 0.125 0 0 Z " fill="#292528" transform="translate(142.125,393.875)"/>
<path d="M0 0 C0.33 0.99 0.66 1.98 1 3 C0.07421875 4.82421875 0.07421875 4.82421875 -1.3125 6.6875 C-1.76238281 7.31011719 -2.21226562 7.93273437 -2.67578125 8.57421875 C-3.11277344 9.04472656 -3.54976563 9.51523437 -4 10 C-4.66 10 -5.32 10 -6 10 C-4.34832443 6.4213696 -2.21713508 3.25179812 0 0 Z " fill="#262124" transform="translate(371,315)"/>
<path d="M0 0 C0.66 0.33 1.32 0.66 2 1 C1.34 3.31 0.68 5.62 0 8 C-0.99 7.01 -1.98 6.02 -3 5 C-2 3 -2 3 0 0 Z " fill="#252124" transform="translate(398,278)"/>
<path d="M0 0 C-2.93828597 2.50298434 -5.17902761 3.46930939 -9 4 C-8 1 -8 1 -5.625 -0.25 C-3 -1 -3 -1 0 0 Z " fill="#312C2F" transform="translate(131,29)"/>
<path d="M0 0 C0.86625 0.3403125 0.86625 0.3403125 1.75 0.6875 C0.76 2.0075 -0.23 3.3275 -1.25 4.6875 C-3.725 3.6975 -3.725 3.6975 -6.25 2.6875 C-2.80384615 -0.38942308 -2.80384615 -0.38942308 0 0 Z " fill="#312D30" transform="translate(136.25,25.3125)"/>
<path d="M0 0 C0.598125 0.350625 1.19625 0.70125 1.8125 1.0625 C1.4825 1.7225 1.1525 2.3825 0.8125 3.0625 C-1.75 3.6875 -1.75 3.6875 -4.1875 4.0625 C-4.5175 2.7425 -4.8475 1.4225 -5.1875 0.0625 C-2.1875 -0.9375 -2.1875 -0.9375 0 0 Z " fill="#2E282D" transform="translate(153.1875,19.9375)"/>
<path d="M0 0 C0.66 0.99 1.32 1.98 2 3 C1.01 4.98 0.02 6.96 -1 9 C-1.33 9 -1.66 9 -2 9 C-2.6875 6.1875 -2.6875 6.1875 -3 3 C-1.5625 1.125 -1.5625 1.125 0 0 Z " fill="#272427" transform="translate(390,296)"/>
<path d="M0 0 C1.5625 1.6875 1.5625 1.6875 3 4 C2.6875 6.75 2.6875 6.75 2 9 C0.4375 7.3125 0.4375 7.3125 -1 5 C-0.6875 2.25 -0.6875 2.25 0 0 Z " fill="#312D30" transform="translate(24,140)"/>
<path d="M0 0 C0.66 1.32 1.32 2.64 2 4 C1.01 4.66 0.02 5.32 -1 6 C-1.99 5.01 -2.98 4.02 -4 3 C-2.68 2.01 -1.36 1.02 0 0 Z " fill="#2C2A2B" transform="translate(83,57)"/>
<path d="M0 0 C6.625 0.75 6.625 0.75 10 3 C8.35 3.66 6.7 4.32 5 5 C4.34 4.01 3.68 3.02 3 2 C2.01 1.34 1.02 0.68 0 0 Z " fill="#333133" transform="translate(263,25)"/>
<path d="M0 0 C3.625 0.375 3.625 0.375 7 1 C6.67 1.66 6.34 2.32 6 3 C3.36 2.67 0.72 2.34 -2 2 C-1.34 1.34 -0.68 0.68 0 0 Z " fill="#282629" transform="translate(163,402)"/>
<path d="M0 0 C0.33 0 0.66 0 1 0 C1.33 3.3 1.66 6.6 2 10 C1.01 10.495 1.01 10.495 0 11 C0 10.01 0 9.02 0 8 C-0.66 8 -1.32 8 -2 8 C-1.34 5.36 -0.68 2.72 0 0 Z " fill="#1B1A1B" transform="translate(108,230)"/>
<path d="M0 0 C2.31 0.33 4.62 0.66 7 1 C5.1875 2.5625 5.1875 2.5625 3 4 C2.01 3.67 1.02 3.34 0 3 C0 2.01 0 1.02 0 0 Z " fill="#302A2E" transform="translate(264,17)"/>
</svg>
